<svg width="224" height="56" viewBox="0 0 224 56" fill="none" xmlns="http://www.w3.org/2000/svg">
  <defs>
    <linearGradient id="g1" x1="4" y1="4" x2="52" y2="52" gradientUnits="userSpaceOnUse">
      <stop offset="0" stop-color="#0EA5A8"/>
      <stop offset="1" stop-color="#0B6BCE"/>
    </linearGradient>
  </defs>
  <rect x="4" y="4" width="48" height="48" rx="14" fill="url(#g1)"/>
  <path d="M16 22.5C16 18.3579 19.3579 15 23.5 15H32.5C36.6421 15 40 18.3579 40 22.5V33.5C40 37.6421 36.6421 41 32.5 41H23.5C19.3579 41 16 37.6421 16 33.5V22.5Z" fill="white" fill-opacity="0.16"/>
  <path d="M19.5 23.5L27.8 30.2C28.5328 30.7919 29.5672 30.7919 30.3 30.2L38.5 23.5" stroke="white" stroke-width="2.6" stroke-linecap="round" stroke-linejoin="round"/>
  <path d="M19.5 23V33.2C19.5 34.5255 20.5745 35.6 21.9 35.6H36.1C37.4255 35.6 38.5 34.5255 38.5 33.2V23" stroke="white" stroke-width="2.6" stroke-linecap="round"/>
  <text x="64" y="37" fill="#0F172A" font-family="Space Grotesk, Segoe UI, sans-serif" font-size="29" font-weight="700" letter-spacing="0.3">AliasNest</text>
</svg>
